<svg width="28" height="28" viewBox="0 0 28 28" fill="none" xmlns="http://www.w3.org/2000/svg">
<path d="M19.5867 0.666504H8.41341C3.56008 0.666504 0.666748 3.55984 0.666748 8.41317V19.5732C0.666748 24.4398 3.56008 27.3332 8.41341 27.3332H19.5734C24.4267 27.3332 27.3201 24.4398 27.3201 19.5865V8.41317C27.3334 3.55984 24.4401 0.666504 19.5867 0.666504ZM20.6667 20.9998H7.33341C6.78675 20.9998 6.33341 20.5465 6.33341 19.9998C6.33341 19.4532 6.78675 18.9998 7.33341 18.9998H20.6667C21.2134 18.9998 21.6667 19.4532 21.6667 19.9998C21.6667 20.5465 21.2134 20.9998 20.6667 20.9998ZM20.6667 14.9998H7.33341C6.78675 14.9998 6.33341 14.5465 6.33341 13.9998C6.33341 13.4532 6.78675 12.9998 7.33341 12.9998H20.6667C21.2134 12.9998 21.6667 13.4532 21.6667 13.9998C21.6667 14.5465 21.2134 14.9998 20.6667 14.9998ZM20.6667 8.99984H7.33341C6.78675 8.99984 6.33341 8.5465 6.33341 7.99984C6.33341 7.45317 6.78675 6.99984 7.33341 6.99984H20.6667C21.2134 6.99984 21.6667 7.45317 21.6667 7.99984C21.6667 8.5465 21.2134 8.99984 20.6667 8.99984Z" fill="#FF0000"/>
</svg>
